<svg xmlns="http://www.w3.org/2000/svg" viewBox="0 0 500 500"><g id="freepik--background-complete--inject-125"><path d="M87.59,239.56l-13.12.27-6.66.12c-2.23,0-4.47,0-6.7.05h-.44v-.44l-.06-11.19v-.51h.5l13.24.06c4.42,0,8.83.11,13.24.16h.28v.27c0,1.89-.09,3.78-.13,5.65Zm0,0-.14-5.66c0-1.86-.11-3.7-.13-5.53l.27.27c-4.41.05-8.82.16-13.24.16l-13.24.07.5-.5,0,11.19-.45-.45c2.18,0,4.36,0,6.55,0l6.58.12Z" style="fill:#ebebeb"></path><path d="M72.82,253.67l-13.12.27-6.66.12c-2.23,0-4.47,0-6.7.05H45.9v-.44l-.06-11.19V242h.5l13.24.06c4.41,0,8.83.11,13.24.16h.28v.27c0,1.89-.08,3.78-.13,5.65Zm0,0L72.68,248c-.05-1.86-.11-3.7-.13-5.53l.27.27c-4.41.05-8.83.16-13.24.16L46.34,243l.5-.49-.05,11.19-.45-.45c2.18,0,4.36,0,6.55.05l6.58.12Z" style="fill:#ebebeb"></path><path d="M363.58,360.91l-13.12.27-6.66.12c-2.23,0-4.47,0-6.7.05h-.44v-.44l-.06-11.19v-.51h.5l13.24.06c4.42,0,8.83.11,13.24.16h.28v.27c0,1.89-.09,3.78-.14,5.65Zm0,0-.14-5.66c0-1.86-.11-3.7-.13-5.53l.27.27c-4.41.05-8.82.16-13.24.16l-13.24.07.5-.5-.05,11.19-.45-.45c2.18,0,4.36,0,6.55.05l6.58.12Z" style="fill:#ebebeb"></path><path d="M348.81,375l-13.12.27-6.67.12c-2.22,0-4.46,0-6.69,0h-.44V375l-.05-11.19v-.51h.5l13.24.06c4.41,0,8.83.11,13.24.16h.28v.27c0,1.89-.08,3.78-.13,5.65Zm0,0-.14-5.66c-.05-1.86-.11-3.7-.13-5.53l.27.27c-4.41,0-8.83.16-13.24.16l-13.24.07.5-.5L322.78,375l-.45-.45c2.18,0,4.36,0,6.55.05l6.57.12Z" style="fill:#ebebeb"></path><path d="M453.66,253.67l-13.13.27-6.66.12c-2.22,0-4.46,0-6.69.05h-.45v-.44l-.05-11.19V242h.5l13.24.06c4.41,0,8.83.11,13.24.16h.27v.27c0,1.89-.08,3.78-.13,5.65Zm0,0-.14-5.66c0-1.86-.12-3.7-.13-5.53l.27.27c-4.41.05-8.83.16-13.24.16l-13.24.06.5-.49-.06,11.19-.44-.45c2.18,0,4.36,0,6.54.05l6.58.12Z" style="fill:#ebebeb"></path><path d="M438.89,55.2l-13.13.28-6.66.11c-2.22,0-4.46,0-6.69.06H412V55.2l0-11.19v-.5h.51l13.24.06c4.41,0,8.82.12,13.24.17h.27V44c0,1.9-.09,3.79-.13,5.65Zm0,0-.14-5.65c-.05-1.87-.12-3.71-.14-5.54l.28.27c-4.42,0-8.83.16-13.24.17l-13.24.06.5-.5-.06,11.19-.44-.45c2.18,0,4.35,0,6.54.06l6.58.11Z" style="fill:#ebebeb"></path><path d="M453.66,69.31l-13.13.28-6.66.11c-2.22,0-4.46,0-6.69.06h-.45v-.45l-.05-11.19v-.5h.5l13.24.06c4.41,0,8.83.12,13.24.17h.27v.27c0,1.9-.08,3.79-.13,5.65Zm0,0-.14-5.65c0-1.87-.12-3.71-.13-5.54l.27.27c-4.41,0-8.83.16-13.24.17l-13.24.06.5-.5-.06,11.19-.44-.45c2.18,0,4.36,0,6.54.06l6.58.11Z" style="fill:#ebebeb"></path><path d="M87.59,55.2l-13.12.28-6.66.11c-2.23,0-4.47,0-6.7.06h-.44V55.2L60.61,44v-.5h.5l13.24.06c4.42,0,8.83.12,13.24.17h.28V44c0,1.9-.09,3.79-.13,5.65Zm0,0-.14-5.65c0-1.87-.11-3.71-.13-5.54l.27.27c-4.41,0-8.82.16-13.24.17l-13.24.06.5-.5,0,11.19-.45-.45c2.18,0,4.36,0,6.55.06l6.58.11Z" style="fill:#ebebeb"></path><path d="M240.33,178.26l-13.12.27-6.66.12c-2.23,0-4.47,0-6.7,0h-.44v-.44l-.05-11.19v-.51h.5l13.24.06c4.41,0,8.83.11,13.24.16h.28v.27c0,1.89-.08,3.78-.13,5.65Zm0,0-.14-5.66c-.05-1.86-.11-3.7-.13-5.53l.27.27c-4.41,0-8.83.16-13.24.16l-13.24.07.5-.5,0,11.19-.45-.45c2.18,0,4.36,0,6.55.06L227,178Z" style="fill:#ebebeb"></path><rect x="48.07" y="66.68" width="52.36" height="63.51" style="fill:#ebebeb"></rect><rect x="54.06" y="72.47" width="40.39" height="51.92" style="fill:#fff"></rect><rect x="54.06" y="72.47" width="1.58" height="51.92" style="fill:#dbdbdb"></rect><rect x="100.43" y="66.68" width="1.58" height="63.51" style="fill:#dbdbdb"></rect><rect x="67.59" y="79.63" width="9.52" height="28.38" style="fill:#dbdbdb"></rect><path d="M89.33,113.35H62.94V98.45H89.33Zm-25.39-1H88.33V99.45H63.94Z" style="fill:#ebebeb"></path><rect x="48.07" y="148" width="52.36" height="63.51" style="fill:#ebebeb"></rect><rect x="54.06" y="153.8" width="40.39" height="51.92" style="fill:#fff"></rect><rect x="54.06" y="153.8" width="1.58" height="51.92" style="fill:#dbdbdb"></rect><rect x="100.43" y="148" width="1.58" height="63.51" style="fill:#dbdbdb"></rect><rect x="70.34" y="167.22" width="8.16" height="20.63" style="fill:#ebebeb"></rect><path d="M87.59,194.48H64.67V179.26H87.59Zm-21.92-1H86.59V180.26H65.67Z" style="fill:#dbdbdb"></path><polygon points="273.17 371.4 448.9 371.4 452.56 299.3 269.51 299.3 273.17 371.4" style="fill:#ebebeb"></polygon><path d="M440.57,332.3H367.1l-1.37-25h76.45Zm-72.63-.88h71.8l1.5-23.26H366.66Z" style="fill:#dbdbdb"></path><path d="M439.22,361.1H370l-1.12-22.59h71.77Zm-68.4-.88h67.56l1.31-20.83h-69.9Z" style="fill:#dbdbdb"></path><path d="M410.91,322.5H398.57l-.78-6h13.9Zm-11.56-.89h10.78l.55-4.26H398.8Z" style="fill:#dbdbdb"></path><path d="M410.91,352.82H398.57l-.78-6h13.9Zm-11.56-.88h10.78l.55-4.27H398.8Z" style="fill:#dbdbdb"></path><path d="M354.15,332.3H280.68l-1.37-25h76.45Zm-72.63-.88h71.8l1.5-23.26H280.24Z" style="fill:#dbdbdb"></path><path d="M352.8,361.1H283.56l-1.12-22.59h71.77Zm-68.39-.88H352l1.3-20.83h-69.9Z" style="fill:#dbdbdb"></path><path d="M324.49,322.5H312.15l-.78-6h13.9Zm-11.56-.89h10.78l.55-4.26H312.38Z" style="fill:#dbdbdb"></path><path d="M324.49,352.82H312.15l-.78-6h13.9Zm-11.56-.88h10.78l.55-4.27H312.38Z" style="fill:#dbdbdb"></path><polygon points="288.93 371.4 287.82 379.26 285.6 395.04 281.26 395.04 281.26 371.4 288.93 371.4" style="fill:#ebebeb"></polygon><polygon points="288.93 371.4 287.82 379.26 281.26 379.26 281.26 371.4 288.93 371.4" style="fill:#dbdbdb"></polygon><polygon points="433.14 371.4 434.25 379.26 436.47 395.04 440.81 395.04 440.81 371.4 433.14 371.4" style="fill:#ebebeb"></polygon><polygon points="433.14 371.4 434.25 379.26 440.81 379.26 440.81 371.4 433.14 371.4" style="fill:#dbdbdb"></polygon></g><g id="freepik--Plant--inject-125"><polygon points="441.46 147.01 421.51 54.92 403.07 147.01 402.19 146.88 421.48 50.58 442.34 146.87 441.46 147.01" style="fill:#dbdbdb"></polygon><polygon points="436.13 239.01 421.72 186.12 408.4 239 407.54 238.78 421.69 182.61 436.98 238.77 436.13 239.01" style="fill:#dbdbdb"></polygon><path d="M423.32,52.25a1.83,1.83,0,1,1-1.83-1.83A1.82,1.82,0,0,1,423.32,52.25Z" style="fill:#a6a6a6"></path><polygon points="441.19 244.9 440.53 253.53 438.97 274.07 405.88 274.07 404.32 253.53 403.66 244.9 441.19 244.9" style="fill:#407BFF"></polygon><polygon points="441.19 244.9 440.53 253.53 404.32 253.53 403.66 244.9 441.19 244.9" style="opacity:0.1"></polygon><rect x="401.39" y="242.14" width="42.06" height="6.7" style="fill:#407BFF"></rect><path d="M444.6,240.75a2,2,0,0,1-2.24,1.85,2.15,2.15,0,0,1-2.41.7,2.43,2.43,0,0,1-2.41,1.43,2.47,2.47,0,0,1-1.43,3,1.52,1.52,0,0,1-1.58,1.08,2.53,2.53,0,0,1-1.86-1.29,1.92,1.92,0,0,1-2.83.25,1.58,1.58,0,0,1-.34-1.71,2.58,2.58,0,0,1-.37-.24,2.39,2.39,0,0,1-.65-2,2.32,2.32,0,0,1-1.72,0,1.32,1.32,0,0,1-1.19,1,2.35,2.35,0,0,1-.4,2.11,2.46,2.46,0,0,1-2.15.81c.24,1.13.29,2.42-.74,3.17a1.65,1.65,0,0,1-1.69.16,2.14,2.14,0,0,1-2.65,1.67,2.78,2.78,0,0,1-.25,2,1.91,1.91,0,0,1-1.42.91c0,1.1-.48,2.31-1.77,2.29a1.3,1.3,0,0,1-1.22-1.58,1.63,1.63,0,0,1-.84-2.71,2.36,2.36,0,0,1,0-3.72,1.55,1.55,0,0,1,.07-2.28,2.08,2.08,0,0,1-.76-1.66,2.31,2.31,0,0,1,1.2-1.84,1,1,0,0,1-.58-.58.84.84,0,0,1,0-.18,1.53,1.53,0,0,1-1.22,0,1.38,1.38,0,0,1-.61-.56,2.52,2.52,0,0,1-2.41.6,2,2,0,0,1-3.11.63c-.76.68-1.79,1.34-2.78.72a1.25,1.25,0,0,1-.57-1.12,1.37,1.37,0,0,1-1.25-.74,1.3,1.3,0,0,1,.35-1.59,1.19,1.19,0,0,1-.47-.72,1.44,1.44,0,0,1,1.41-1.61,2,2,0,0,1,.4-2,2.91,2.91,0,0,1,2.36-.84,2.56,2.56,0,0,1,1.25-2.65,2.07,2.07,0,0,1,2.56.61,3.32,3.32,0,0,1,5.28-.33,1.65,1.65,0,0,1,2.06-.85,2.72,2.72,0,0,1,1.55,2.71,3.22,3.22,0,0,1,3.3.26,3.3,3.3,0,0,1,1.26,2.74,2.88,2.88,0,0,1,3.09.18,6.39,6.39,0,0,1,3.29-2.51,3.14,3.14,0,0,1,2.68.57,3.66,3.66,0,0,1,6.68-.84,2.57,2.57,0,0,1,2.72-.36,4.85,4.85,0,0,1,2.39,3.13A2,2,0,0,1,444.6,240.75Z" style="fill:#455a64"></path><polygon points="447.5 149.46 446.62 161 444.54 188.44 400.31 188.44 398.23 161 397.35 149.46 447.5 149.46" style="fill:#407BFF"></polygon><polygon points="447.5 149.46 446.62 161 398.23 161 397.35 149.46 447.5 149.46" style="opacity:0.1"></polygon><rect x="394.32" y="145.77" width="56.21" height="8.95" style="fill:#407BFF"></rect><path d="M449.25,148a3.26,3.26,0,0,1,.68,3.06,6,6,0,0,1-3.43,3.08,3.68,3.68,0,0,1-1.23,5.39c1.34,1.57,1.89,3.35.16,4.51a4,4,0,0,1-1.22,5.74c.38,1.24-.82,4.94-3.36,4.93a2.68,2.68,0,0,1-2.33-4,3.15,3.15,0,0,1-.72-5s-1.57.34-2.32-.46a2.16,2.16,0,0,1-.13-2.12,3.58,3.58,0,0,1,.82-5.23,3,3,0,0,1,0-4.44,4.15,4.15,0,0,1-1.75-1.49c-1.28.61-2.05.07-2.76-1.14a3,3,0,0,1-3.21.84,3.53,3.53,0,0,1-5.18,2.09,4.89,4.89,0,0,1-1,2.63c-.18.24-.39.42-.59.64a4.78,4.78,0,0,0-.56.93,4.43,4.43,0,0,1-1.17,1.34,2.21,2.21,0,0,1-2.92-.12,1.65,1.65,0,0,1-.26-1.73,2.25,2.25,0,0,1-1.41-2.85,2.75,2.75,0,0,1-2.69-1.57,2.87,2.87,0,0,1-2.21,1.11,3.25,3.25,0,0,1-1.85,4.08,3.34,3.34,0,0,1-1.43,4.76,2.35,2.35,0,0,1-.69,3.12,3,3,0,0,1-.11,2.68,1.94,1.94,0,0,1-1.82.88,1.44,1.44,0,0,1-.87-2.15,3.62,3.62,0,0,1-1.3-6,3,3,0,0,1-1.75-4.49,2.93,2.93,0,0,1-1.68-4.74,1.77,1.77,0,0,1-1.6-.59,1.61,1.61,0,0,1-.33-1,2.29,2.29,0,0,1-2.47-1.08,2.23,2.23,0,0,1,.45-2.6,1.9,1.9,0,0,1-1.26-1.36,1.76,1.76,0,0,1,.14-1.14,2.2,2.2,0,0,1-2.63-1.86,1.78,1.78,0,0,1,1.2-1.86,2.11,2.11,0,0,1-.17-1.43c.33-1.37,1.91-1.79,3.16-1.94a2.81,2.81,0,0,1,3.12-3.68,2.89,2.89,0,0,1,1.35-2.69,2.77,2.77,0,0,1,3,.23H403a3.42,3.42,0,0,1,2.89,3.32,3.5,3.5,0,0,1,3.34,0,4.9,4.9,0,0,1,2.31,3.4,4,4,0,0,1,6.4.83,3.65,3.65,0,0,1,6.3,2.07,9.09,9.09,0,0,1,8.51-1.67,4,4,0,0,1,6-1.91,4,4,0,0,1,4.13-2.43c2.1.21,3.64,1.9,4.5,3.73A4,4,0,0,1,451,144,2.94,2.94,0,0,1,449.25,148Z" style="fill:#455a64"></path></g><g id="freepik--Floor--inject-125"><polygon points="47.44 395.14 98.08 394.9 148.72 394.81 250 394.64 351.28 394.81 401.92 394.89 452.56 395.14 401.92 395.38 351.28 395.47 250 395.64 148.72 395.47 98.08 395.38 47.44 395.14" style="fill:#263238"></polygon></g><g id="freepik--Resume--inject-125"><rect x="100.41" y="50.42" width="299.18" height="390.33" style="fill:#fff"></rect><path d="M399.59,440.76l-299.18.1h-.11v-.11l-.14-390.33v-.25h.25l299.18.11h.14v.14Zm0,0-.14-390.34.14.14-299.18.11.25-.25-.14,390.33-.11-.1Z" style="fill:#263238"></path><rect x="100.41" y="431.44" width="299.18" height="9.31" style="fill:#407BFF"></rect><rect x="111.1" y="59.73" width="21.66" height="191.3" style="fill:#ebebeb"></rect><rect x="367.25" y="240.22" width="21.66" height="191.3" style="fill:#ebebeb"></rect><rect x="100.41" y="50.42" width="299.18" height="9.31" style="fill:#455a64"></rect><rect x="195.62" y="121.75" width="108.76" height="108.76" style="fill:#c7c7c7"></rect><rect x="121.69" y="75.07" width="256.62" height="30.13" style="fill:#407BFF"></rect><rect x="121.69" y="121.75" width="50.05" height="3.39" style="fill:#455a64"></rect><rect x="121.69" y="249.34" width="50.05" height="3.39" style="fill:#455a64"></rect><rect x="121.69" y="384.79" width="50.05" height="3.39" style="fill:#455a64"></rect><rect x="121.69" y="330.14" width="50.05" height="3.39" style="fill:#455a64"></rect><rect x="314.06" y="121.75" width="50.05" height="3.39" style="fill:#455a64"></rect><path d="M121.69,133.36c5.35-.15,10.71-.22,16.06-.28l16.06-.09,16.06.09c5.36.06,10.71.13,16.07.28-5.36.16-10.71.23-16.07.29l-16.06.09-16.06-.09C132.4,133.59,127,133.52,121.69,133.36Z" style="fill:#a6a6a6"></path><path d="M121.69,138c5.35-.15,10.71-.23,16.06-.29l16.06-.08,16.06.08c5.36.06,10.71.13,16.07.29-5.36.16-10.71.23-16.07.29l-16.06.08-16.06-.08C132.4,138.22,127,138.14,121.69,138Z" style="fill:#a6a6a6"></path><path d="M121.69,142.62c5.35-.16,10.71-.23,16.06-.29l16.06-.09,16.06.09c5.36.06,10.71.13,16.07.29-5.36.15-10.71.22-16.07.28l-16.06.09-16.06-.09C132.4,142.84,127,142.77,121.69,142.62Z" style="fill:#a6a6a6"></path><path d="M121.69,147.24c5.35-.15,10.71-.23,16.06-.29l16.06-.08,16.06.08c5.36.06,10.71.14,16.07.29-5.36.16-10.71.23-16.07.29l-16.06.09-16.06-.09C132.4,147.47,127,147.4,121.69,147.24Z" style="fill:#a6a6a6"></path><path d="M121.69,151.87c2.68-.16,5.35-.23,8-.29s5.35-.06,8-.09,5.35,0,8,.09,5.36.13,8,.29c-2.67.15-5.35.23-8,.29s-5.35.05-8,.08-5.35,0-8-.09S124.37,152,121.69,151.87Z" style="fill:#a6a6a6"></path><path d="M121.69,161.12c5.35-.16,10.71-.23,16.06-.29l16.06-.09,16.06.09c5.36.06,10.71.13,16.07.29-5.36.15-10.71.23-16.07.29l-16.06.08-16.06-.08C132.4,161.35,127,161.27,121.69,161.12Z" style="fill:#a6a6a6"></path><path d="M121.69,165.74c5.35-.15,10.71-.22,16.06-.28l16.06-.09,16.06.09c5.36.06,10.71.13,16.07.28-5.36.16-10.71.23-16.07.29l-16.06.09L137.75,166C132.4,166,127,165.9,121.69,165.74Z" style="fill:#a6a6a6"></path><path d="M121.69,170.37c5.35-.15,10.71-.23,16.06-.29l16.06-.08,16.06.08c5.36.06,10.71.13,16.07.29-5.36.16-10.71.23-16.07.29l-16.06.08-16.06-.08C132.4,170.6,127,170.52,121.69,170.37Z" style="fill:#a6a6a6"></path><path d="M121.69,175c5.35-.16,10.71-.23,16.06-.29l16.06-.09,16.06.09c5.36.06,10.71.13,16.07.29-5.36.15-10.71.22-16.07.28l-16.06.09-16.06-.09C132.4,175.22,127,175.15,121.69,175Z" style="fill:#a6a6a6"></path><path d="M121.69,179.62c2.68-.15,5.35-.23,8-.29s5.35-.05,8-.08,5.35,0,8,.08,5.36.14,8,.29c-2.67.16-5.35.23-8,.29s-5.35.06-8,.09-5.35,0-8-.09S124.37,179.78,121.69,179.62Z" style="fill:#a6a6a6"></path><path d="M121.69,188.87c5.35-.15,10.71-.22,16.06-.28l16.06-.09,16.06.08c5.36.06,10.71.14,16.07.29-5.36.16-10.71.23-16.07.29l-16.06.09-16.06-.09C132.4,189.1,127,189,121.69,188.87Z" style="fill:#a6a6a6"></path><path d="M121.69,193.5c5.35-.16,10.71-.23,16.06-.29l16.06-.09,16.06.09c5.36.06,10.71.13,16.07.29-5.36.15-10.71.23-16.07.29l-16.06.08-16.06-.08C132.4,193.73,127,193.65,121.69,193.5Z" style="fill:#a6a6a6"></path><path d="M121.69,198.12c5.35-.15,10.71-.22,16.06-.28l16.06-.09,16.06.09c5.36.06,10.71.13,16.07.28-5.36.16-10.71.23-16.07.29l-16.06.09-16.06-.09C132.4,198.35,127,198.28,121.69,198.12Z" style="fill:#a6a6a6"></path><path d="M121.69,202.75c2.68-.15,5.35-.23,8-.29s5.35-.05,8-.08,5.35,0,8,.08,5.36.13,8,.29c-2.67.16-5.35.23-8,.29s-5.35.05-8,.08-5.35,0-8-.08S124.37,202.9,121.69,202.75Z" style="fill:#a6a6a6"></path><path d="M121.69,212c5.35-.15,10.71-.23,16.06-.29l16.06-.08,16.06.08c5.36.06,10.71.14,16.07.29-5.36.16-10.71.23-16.07.29l-16.06.09-16.06-.09C132.4,212.23,127,212.16,121.69,212Z" style="fill:#a6a6a6"></path><path d="M121.69,216.63c5.35-.16,10.71-.23,16.06-.29l16.06-.09,16.06.09c5.36.06,10.71.13,16.07.29-5.36.15-10.71.22-16.07.29l-16.06.08-16.06-.09C132.4,216.85,127,216.78,121.69,216.63Z" style="fill:#a6a6a6"></path><path d="M121.69,221.25c5.35-.15,10.71-.22,16.06-.28l16.06-.09,16.06.08c5.36.06,10.71.14,16.07.29-5.36.16-10.71.23-16.07.29l-16.06.09-16.06-.09C132.4,221.48,127,221.41,121.69,221.25Z" style="fill:#a6a6a6"></path><path d="M121.69,225.88c5.35-.16,10.71-.23,16.06-.29l16.06-.09,16.06.09c5.36.06,10.71.13,16.07.29-5.36.15-10.71.23-16.07.29l-16.06.08-16.06-.08C132.4,226.11,127,226,121.69,225.88Z" style="fill:#a6a6a6"></path><path d="M121.69,230.5c2.68-.15,5.35-.22,8-.28s5.35-.06,8-.09,5.35,0,8,.09,5.36.13,8,.28c-2.67.16-5.35.23-8,.29s-5.35.06-8,.09-5.35,0-8-.09S124.37,230.66,121.69,230.5Z" style="fill:#a6a6a6"></path><path d="M314.06,133.36c5.36-.15,10.71-.22,16.07-.28l16.06-.09,16.06.09c5.35.06,10.71.13,16.06.28-5.35.16-10.71.23-16.06.29l-16.06.09-16.06-.09C324.77,133.59,319.42,133.52,314.06,133.36Z" style="fill:#a6a6a6"></path><path d="M314.06,138c5.36-.15,10.71-.23,16.07-.29l16.06-.08,16.06.08c5.35.06,10.71.13,16.06.29-5.35.16-10.71.23-16.06.29l-16.06.08-16.06-.08C324.77,138.22,319.42,138.14,314.06,138Z" style="fill:#a6a6a6"></path><path d="M314.06,142.62c5.36-.16,10.71-.23,16.07-.29l16.06-.09,16.06.09c5.35.06,10.71.13,16.06.29-5.35.15-10.71.22-16.06.28l-16.06.09-16.06-.09C324.77,142.84,319.42,142.77,314.06,142.62Z" style="fill:#a6a6a6"></path><path d="M314.06,147.24c5.36-.15,10.71-.23,16.07-.29l16.06-.08,16.06.08c5.35.06,10.71.14,16.06.29-5.35.16-10.71.23-16.06.29l-16.06.09-16.06-.09C324.77,147.47,319.42,147.4,314.06,147.24Z" style="fill:#a6a6a6"></path><path d="M314.06,151.87c2.68-.16,5.36-.23,8-.29s5.35-.06,8-.09,5.35,0,8,.09,5.35.13,8,.29c-2.68.15-5.36.23-8,.29s-5.36.05-8,.08-5.36,0-8-.09S316.74,152,314.06,151.87Z" style="fill:#a6a6a6"></path><path d="M314.06,161.12c5.36-.16,10.71-.23,16.07-.29l16.06-.09,16.06.09c5.35.06,10.71.13,16.06.29-5.35.15-10.71.23-16.06.29l-16.06.08-16.06-.08C324.77,161.35,319.42,161.27,314.06,161.12Z" style="fill:#a6a6a6"></path><path d="M314.06,165.74c5.36-.15,10.71-.22,16.07-.28l16.06-.09,16.06.09c5.35.06,10.71.13,16.06.28-5.35.16-10.71.23-16.06.29l-16.06.09L330.13,166C324.77,166,319.42,165.9,314.06,165.74Z" style="fill:#a6a6a6"></path><path d="M314.06,170.37c5.36-.15,10.71-.23,16.07-.29l16.06-.08,16.06.08c5.35.06,10.71.13,16.06.29-5.35.16-10.71.23-16.06.29l-16.06.08-16.06-.08C324.77,170.6,319.42,170.52,314.06,170.37Z" style="fill:#a6a6a6"></path><path d="M314.06,175c5.36-.16,10.71-.23,16.07-.29l16.06-.09,16.06.09c5.35.06,10.71.13,16.06.29-5.35.15-10.71.22-16.06.28l-16.06.09-16.06-.09C324.77,175.22,319.42,175.15,314.06,175Z" style="fill:#a6a6a6"></path><path d="M314.06,179.62c2.68-.15,5.36-.23,8-.29s5.35-.05,8-.08,5.35,0,8,.08,5.35.14,8,.29c-2.68.16-5.36.23-8,.29s-5.36.06-8,.09-5.36,0-8-.09S316.74,179.78,314.06,179.62Z" style="fill:#a6a6a6"></path><path d="M314.06,188.87c5.36-.15,10.71-.22,16.07-.28l16.06-.09,16.06.08c5.35.06,10.71.14,16.06.29-5.35.16-10.71.23-16.06.29l-16.06.09-16.06-.09C324.77,189.1,319.42,189,314.06,188.87Z" style="fill:#a6a6a6"></path><path d="M314.06,193.5c5.36-.16,10.71-.23,16.07-.29l16.06-.09,16.06.09c5.35.06,10.71.13,16.06.29-5.35.15-10.71.23-16.06.29l-16.06.08-16.06-.08C324.77,193.73,319.42,193.65,314.06,193.5Z" style="fill:#a6a6a6"></path><path d="M314.06,198.12c5.36-.15,10.71-.22,16.07-.28l16.06-.09,16.06.09c5.35.06,10.71.13,16.06.28-5.35.16-10.71.23-16.06.29l-16.06.09-16.06-.09C324.77,198.35,319.42,198.28,314.06,198.12Z" style="fill:#a6a6a6"></path><path d="M314.06,202.75c2.68-.15,5.36-.23,8-.29s5.35-.05,8-.08,5.35,0,8,.08,5.35.13,8,.29c-2.68.16-5.36.23-8,.29s-5.36.05-8,.08-5.36,0-8-.08S316.74,202.9,314.06,202.75Z" style="fill:#a6a6a6"></path><path d="M314.06,212c5.36-.15,10.71-.23,16.07-.29l16.06-.08,16.06.08c5.35.06,10.71.14,16.06.29-5.35.16-10.71.23-16.06.29l-16.06.09-16.06-.09C324.77,212.23,319.42,212.16,314.06,212Z" style="fill:#a6a6a6"></path><path d="M314.06,216.63c5.36-.16,10.71-.23,16.07-.29l16.06-.09,16.06.09c5.35.06,10.71.13,16.06.29-5.35.15-10.71.22-16.06.29l-16.06.08-16.06-.09C324.77,216.85,319.42,216.78,314.06,216.63Z" style="fill:#a6a6a6"></path><path d="M314.06,221.25c5.36-.15,10.71-.22,16.07-.28l16.06-.09,16.06.08c5.35.06,10.71.14,16.06.29-5.35.16-10.71.23-16.06.29l-16.06.09-16.06-.09C324.77,221.48,319.42,221.41,314.06,221.25Z" style="fill:#a6a6a6"></path><path d="M314.06,225.88c5.36-.16,10.71-.23,16.07-.29l16.06-.09,16.06.09c5.35.06,10.71.13,16.06.29-5.35.15-10.71.23-16.06.29l-16.06.08-16.06-.08C324.77,226.11,319.42,226,314.06,225.88Z" style="fill:#a6a6a6"></path><path d="M314.06,230.5c2.68-.15,5.36-.22,8-.28s5.35-.06,8-.09,5.35,0,8,.09,5.35.13,8,.28c-2.68.16-5.36.23-8,.29s-5.36.06-8,.09-5.36,0-8-.09S316.74,230.66,314.06,230.5Z" style="fill:#a6a6a6"></path><rect x="136.62" y="264.12" width="100.78" height="4.68" style="fill:#ebebeb"></rect><rect x="136.62" y="264.12" width="72.86" height="4.68" style="fill:#407BFF"></rect><rect x="136.62" y="276.23" width="100.78" height="4.68" style="fill:#ebebeb"></rect><rect x="136.62" y="276.23" width="92.42" height="4.68" style="fill:#407BFF"></rect><rect x="136.62" y="288.33" width="100.78" height="4.68" style="fill:#ebebeb"></rect><rect x="136.62" y="288.33" width="78.54" height="4.68" style="fill:#407BFF"></rect><rect x="136.62" y="300.44" width="100.78" height="4.68" style="fill:#ebebeb"></rect><rect x="136.62" y="300.44" width="86.61" height="4.68" style="fill:#407BFF"></rect><rect x="136.62" y="312.54" width="100.78" height="4.68" style="fill:#ebebeb"></rect><rect x="136.62" y="312.54" width="94.78" height="4.68" style="fill:#407BFF"></rect><rect x="121.69" y="262.68" width="7.56" height="7.56" style="fill:#407BFF"></rect><rect x="121.69" y="274.79" width="7.56" height="7.56" style="fill:#455a64"></rect><rect x="121.69" y="286.89" width="7.56" height="7.56" style="fill:#c7c7c7"></rect><rect x="121.69" y="299" width="7.56" height="7.56" style="fill:#407BFF"></rect><rect x="121.69" y="311.11" width="7.56" height="7.56" style="fill:#263238"></rect><rect x="264.6" y="249.34" width="64.22" height="3.39" style="fill:#455a64"></rect><rect x="264.6" y="262.49" width="24.41" height="3.39" style="fill:#c7c7c7"></rect><rect x="264.6" y="291.32" width="24.41" height="3.39" style="fill:#c7c7c7"></rect><rect x="264.6" y="320.14" width="24.41" height="3.39" style="fill:#c7c7c7"></rect><rect x="264.6" y="348.97" width="24.41" height="3.39" style="fill:#c7c7c7"></rect><path d="M313.91,264.19c5.35-.16,10.7-.23,16.06-.29l16.06-.09,16.06.09c5.36.06,10.71.13,16.06.29-5.35.15-10.7.23-16.06.29l-16.06.08L330,264.48C324.61,264.42,319.26,264.34,313.91,264.19Z" style="fill:#a6a6a6"></path><path d="M313.91,268.81c5.35-.15,10.7-.22,16.06-.28l16.06-.09,16.06.09c5.36.06,10.71.13,16.06.28-5.35.16-10.7.23-16.06.29l-16.06.09L330,269.1C324.61,269,319.26,269,313.91,268.81Z" style="fill:#a6a6a6"></path><path d="M313.91,273.44c5.35-.15,10.7-.23,16.06-.29l16.06-.08,16.06.08c5.36.06,10.71.13,16.06.29-5.35.16-10.7.23-16.06.29l-16.06.08L330,273.73C324.61,273.67,319.26,273.59,313.91,273.44Z" style="fill:#a6a6a6"></path><path d="M313.91,278.07c2.26-.16,4.52-.23,6.78-.29s4.52-.06,6.79-.09,4.52,0,6.78.09,4.52.13,6.79.29c-2.27.15-4.53.22-6.79.28s-4.52.06-6.78.09-4.53,0-6.79-.09S316.17,278.22,313.91,278.07Z" style="fill:#a6a6a6"></path><path d="M313.91,293.09c5.35-.15,10.7-.22,16.06-.28l16.06-.09,16.06.09c5.36.06,10.71.13,16.06.28-5.35.16-10.7.23-16.06.29l-16.06.09L330,293.38C324.61,293.32,319.26,293.25,313.91,293.09Z" style="fill:#a6a6a6"></path><path d="M313.91,297.72c5.35-.16,10.7-.23,16.06-.29l16.06-.09,16.06.09c5.36.06,10.71.13,16.06.29-5.35.16-10.7.23-16.06.29l-16.06.08L330,298C324.61,298,319.26,297.87,313.91,297.72Z" style="fill:#a6a6a6"></path><path d="M313.91,302.35c5.35-.16,10.7-.23,16.06-.29L346,302l16.06.09c5.36.06,10.71.13,16.06.29-5.35.15-10.7.22-16.06.28l-16.06.09L330,302.63C324.61,302.57,319.26,302.5,313.91,302.35Z" style="fill:#a6a6a6"></path><path d="M313.91,307c2.26-.15,4.52-.23,6.78-.29s4.52-.05,6.79-.08,4.52,0,6.78.08,4.52.14,6.79.29c-2.27.16-4.53.23-6.79.29s-4.52.06-6.78.09-4.53,0-6.79-.09S316.17,307.13,313.91,307Z" style="fill:#a6a6a6"></path><path d="M313.91,322c5.35-.16,10.7-.23,16.06-.29l16.06-.09,16.06.09c5.36.06,10.71.13,16.06.29-5.35.16-10.7.23-16.06.29l-16.06.08L330,322.29C324.61,322.23,319.26,322.15,313.91,322Z" style="fill:#a6a6a6"></path><path d="M313.91,326.62c5.35-.15,10.7-.22,16.06-.28l16.06-.09,16.06.09c5.36.06,10.71.13,16.06.28-5.35.16-10.7.23-16.06.29L346,327,330,326.91C324.61,326.85,319.26,326.78,313.91,326.62Z" style="fill:#a6a6a6"></path><path d="M313.91,331.25c5.35-.15,10.7-.23,16.06-.29l16.06-.08,16.06.08c5.36.06,10.71.13,16.06.29-5.35.16-10.7.23-16.06.29l-16.06.09L330,331.54C324.61,331.48,319.26,331.41,313.91,331.25Z" style="fill:#a6a6a6"></path><path d="M313.91,335.88c2.26-.16,4.52-.23,6.78-.29s4.52-.06,6.79-.09,4.52,0,6.78.09,4.52.13,6.79.29c-2.27.15-4.53.22-6.79.28s-4.52.06-6.78.09-4.53,0-6.79-.09S316.17,336,313.91,335.88Z" style="fill:#a6a6a6"></path><path d="M313.91,350.9c5.35-.15,10.7-.22,16.06-.28l16.06-.09,16.06.09c5.36.06,10.71.13,16.06.28-5.35.16-10.7.23-16.06.29l-16.06.09L330,351.19C324.61,351.13,319.26,351.06,313.91,350.9Z" style="fill:#a6a6a6"></path><path d="M313.91,355.53c5.35-.15,10.7-.23,16.06-.29l16.06-.08,16.06.08c5.36.06,10.71.13,16.06.29-5.35.16-10.7.23-16.06.29L346,355.9,330,355.82C324.61,355.76,319.26,355.68,313.91,355.53Z" style="fill:#a6a6a6"></path><path d="M313.91,360.16c5.35-.16,10.7-.23,16.06-.29l16.06-.09,16.06.09c5.36.06,10.71.13,16.06.29-5.35.15-10.7.22-16.06.28l-16.06.09L330,360.44C324.61,360.38,319.26,360.31,313.91,360.16Z" style="fill:#a6a6a6"></path><path d="M313.91,364.78c2.26-.15,4.52-.23,6.78-.29s4.52-.05,6.79-.08,4.52,0,6.78.08,4.52.14,6.79.29c-2.27.16-4.53.23-6.79.29s-4.52.06-6.78.09-4.53,0-6.79-.09S316.17,364.94,313.91,364.78Z" style="fill:#a6a6a6"></path><polygon points="301.04 263.04 301.23 277.63 301.34 292.23 301.43 321.42 301.34 323.22 301.23 337.81 301.04 352.41 300.84 337.81 300.73 323.22 300.64 321.42 300.74 292.23 300.85 277.63 301.04 263.04" style="fill:#407BFF"></polygon><path d="M302.54,264.19a1.51,1.51,0,0,1-3,0,1.51,1.51,0,1,1,3,0Z" style="fill:#407BFF"></path><path d="M302.54,293.09a1.51,1.51,0,1,1-1.5-1.5A1.51,1.51,0,0,1,302.54,293.09Z" style="fill:#407BFF"></path><path d="M302.54,322a1.51,1.51,0,0,1-3,0,1.51,1.51,0,1,1,3,0Z" style="fill:#407BFF"></path><path d="M302.54,350.9a1.51,1.51,0,1,1-1.5-1.5A1.5,1.5,0,0,1,302.54,350.9Z" style="fill:#407BFF"></path><path d="M144,353.64a11.14,11.14,0,1,1-1.47-5.54A11.15,11.15,0,0,1,144,353.64Z" style="fill:#455a64"></path><path d="M142.51,348.1l-9.68,5.54V342.49A11.16,11.16,0,0,1,142.51,348.1Z" style="fill:#407BFF"></path><circle cx="132.83" cy="353.64" r="7.71" transform="translate(-237.74 426.99) rotate(-80.61)" style="fill:#fff"></circle><rect x="129.62" y="351.92" width="6.42" height="0.91" style="fill:#263238"></rect><rect x="128.04" y="354.44" width="9.6" height="0.91" style="fill:#a6a6a6"></rect><path d="M175.16,353.64a11,11,0,0,1-.12,1.63,11.16,11.16,0,1,1,.12-1.63Z" style="fill:#455a64"></path><path d="M175.16,353.64a11,11,0,0,1-.12,1.63l-11-1.63V342.49a11.14,11.14,0,0,1,11.14,11.15Z" style="fill:#407BFF"></path><circle cx="164.02" cy="353.64" r="7.71" transform="translate(-217.78 432.32) rotate(-76.76)" style="fill:#fff"></circle><rect x="160.81" y="351.92" width="6.42" height="0.91" style="fill:#263238"></rect><rect x="159.22" y="354.44" width="9.6" height="0.91" style="fill:#a6a6a6"></rect><path d="M206.56,353.64a11.14,11.14,0,1,1-1.47-5.54A11.13,11.13,0,0,1,206.56,353.64Z" style="fill:#455a64"></path><path d="M206.56,353.64a11.13,11.13,0,0,1-7.15,10.4l-4-10.4V342.49a11.14,11.14,0,0,1,11.14,11.15Z" style="fill:#407BFF"></path><path d="M203.13,353.64a7.71,7.71,0,1,1-7.71-7.71A7.71,7.71,0,0,1,203.13,353.64Z" style="fill:#fff"></path><rect x="192.21" y="351.92" width="6.42" height="0.91" style="fill:#263238"></rect><rect x="190.62" y="354.44" width="9.6" height="0.91" style="fill:#a6a6a6"></rect><path d="M237.79,353.64a11.14,11.14,0,1,1-1.47-5.54A11.1,11.1,0,0,1,237.79,353.64Z" style="fill:#455a64"></path><path d="M237.79,353.64a11.14,11.14,0,0,1-18.37,8.47l7.23-8.47V342.49a11.14,11.14,0,0,1,11.14,11.15Z" style="fill:#407BFF"></path><circle cx="226.65" cy="353.64" r="7.71" transform="translate(-157.33 523.89) rotate(-81.26)" style="fill:#fff"></circle><rect x="223.44" y="351.92" width="6.42" height="0.91" style="fill:#263238"></rect><rect x="221.85" y="354.44" width="9.6" height="0.91" style="fill:#a6a6a6"></rect><polygon points="247.76 249.11 247.94 264.35 248.05 279.59 248.14 310.07 248.05 340.56 247.94 355.8 247.76 371.05 247.58 355.8 247.47 340.56 247.39 310.07 247.47 279.59 247.58 264.35 247.76 249.11" style="fill:#455a64"></polygon><g id="freepik--IaQ7Yo--inject-125"><path d="M128.56,403.57a1,1,0,0,1-.48.24l-.24.05h-.42l-.42-.07a4.25,4.25,0,0,1-1.54-.68,9.89,9.89,0,0,1-2.73-2.74,4.31,4.31,0,0,1-.67-1.52c0-.14,0-.29-.07-.43V398c0-.13.05-.26.09-.39s.12-.23.18-.35l.07.06c.57.58,1.15,1.15,1.73,1.73a.09.09,0,0,1,0,.11.86.86,0,0,0,.18.84,16.62,16.62,0,0,0,1.57,1.57.86.86,0,0,0,.84.18.09.09,0,0,1,.1,0l1.76,1.76Z" style="fill:#407BFF"></path><path d="M129.58,402.56l-.61.61,0,0-1.78-1.77.13-.13.53-.52a.28.28,0,0,1,.45,0l1.32,1.33A.27.27,0,0,1,129.58,402.56Z" style="fill:#407BFF"></path><path d="M125.07,398l-.68.65-1.75-1.75,0,0,.62-.63a.28.28,0,0,1,.44,0l1.34,1.34A.28.28,0,0,1,125.07,398Z" style="fill:#407BFF"></path></g><g id="freepik--TEfYE6--inject-125"><path d="M129.34,412.57l-.19.18-3,2.82a.45.45,0,0,1-.68,0l-3-2.87-.12-.12a.41.41,0,0,1,.26-.07h2.06l4.29,0A.6.6,0,0,1,129.34,412.57Z" style="fill:#407BFF"></path><path d="M129.33,417.81a1.19,1.19,0,0,1-.26.05h-2.46l-4,0a.63.63,0,0,1-.32-.08c.82-.79,1.64-1.56,2.46-2.34l.47.44.2.19a.54.54,0,0,0,.76,0l.65-.63c.82.78,1.63,1.55,2.45,2.31Z" style="fill:#407BFF"></path><path d="M124.49,415.18c-.79.78-1.6,1.53-2.39,2.31,0,0,0-.07,0-.12,0-1.44,0-2.89,0-4.33,0-.05,0-.1,0-.14Z" style="fill:#407BFF"></path><path d="M129.59,417.47l-.9-.86-1.45-1.37-.06-.05c.8-.78,1.61-1.53,2.39-2.3C129.61,413,129.62,417.35,129.59,417.47Z" style="fill:#407BFF"></path></g><g id="freepik--aiZGp2--inject-125"><path d="M247.69,398.05a5.41,5.41,0,0,0-.37,1.72H245.8v0a.49.49,0,0,1,0-.12,4.17,4.17,0,0,1,.1-.6,4.51,4.51,0,0,1,.34-.93s0,0,0,0h1.41Z" style="fill:#407BFF"></path><path d="M247.65,401.89h-1.4s0,0,0,0a4,4,0,0,1-.35-1.06,3.21,3.21,0,0,1-.07-.53v-.06h1.49s0,0,0,0l0,.37a5.62,5.62,0,0,0,.09.57,5.45,5.45,0,0,0,.2.69Z" style="fill:#407BFF"></path><path d="M253.52,402.33v0a5,5,0,0,1-.4.51,3.71,3.71,0,0,1-.58.54,4.53,4.53,0,0,1-.66.41,4.22,4.22,0,0,1-.7.27,2.85,2.85,0,0,1-.58.12h-.09l0,0,0,0a4.7,4.7,0,0,0,1.11-1.07,5.73,5.73,0,0,0,.45-.75s0,0,0,0h1.43Z" style="fill:#407BFF"></path><path d="M252.12,399.77h-2v-1.71h1.53s0,0,0,0a4.53,4.53,0,0,1,.31,1,3.35,3.35,0,0,1,.08.54C252.11,399.67,252.12,399.72,252.12,399.77Z" style="fill:#407BFF"></path><path d="M252.11,400.23a.49.49,0,0,1,0,.12,2.64,2.64,0,0,1,0,.28c0,.14,0,.27-.07.4a4.94,4.94,0,0,1-.25.83s0,0,0,0h-1.57v-1.66Z" style="fill:#407BFF"></path><path d="M249.72,398.07v1.71H247.8a.53.53,0,0,0,0-.13l0-.28c0-.15,0-.29.08-.44a4.87,4.87,0,0,1,.28-.84s0,0,0,0h1.49Z" style="fill:#407BFF"></path><path d="M249.72,400.25v1.64h-1.53s0,0,0,0a4.39,4.39,0,0,1-.27-.87c0-.15,0-.31-.07-.46s0-.2,0-.3h1.9S249.72,400.23,249.72,400.25Z" style="fill:#407BFF"></path><path d="M254.2,399.78h-1.6a5.77,5.77,0,0,0-.38-1.73h1.5a0,0,0,0,1,0,0,3.67,3.67,0,0,1,.37,1.07,4.11,4.11,0,0,1,.08.6Z" style="fill:#407BFF"></path><path d="M254.2,400.21v.12c0,.14,0,.29,0,.43a4.11,4.11,0,0,1-.3,1l-.07.15,0,0h-1.49a.88.88,0,0,1,0-.15,5.38,5.38,0,0,0,.2-.79c0-.19,0-.38.07-.58v-.14a0,0,0,0,1,0,0h1.59Z" style="fill:#407BFF"></path><path d="M253.48,397.62h-1.43s0,0,0,0a4.8,4.8,0,0,0-.7-1,3.5,3.5,0,0,0-.53-.49l-.29-.22h0v0a4,4,0,0,1,1.42.42A4.23,4.23,0,0,1,253.48,397.62Z" style="fill:#407BFF"></path><path d="M249.45,404.19h0a3.4,3.4,0,0,1-.46-.09,4,4,0,0,1-1.65-.85,3.85,3.85,0,0,1-.81-.93h1.32s0,0,0,0a4.2,4.2,0,0,0,.48.78,4.84,4.84,0,0,0,.56.63,4.43,4.43,0,0,0,.54.43Z" style="fill:#407BFF"></path><path d="M249.43,395.85l-.2.14a5.05,5.05,0,0,0-.63.59,4.42,4.42,0,0,0-.67.95l0,.07h-1.38a4.21,4.21,0,0,1,2.89-1.79h0Z" style="fill:#407BFF"></path><path d="M251.54,402.33a5.13,5.13,0,0,1-.65.88,4.48,4.48,0,0,1-.74.63v-1.51Z" style="fill:#407BFF"></path><path d="M249.72,402.33v1.48a4.2,4.2,0,0,1-1.33-1.48Z" style="fill:#407BFF"></path><path d="M251.49,397.61h-1.33V396.2a4.17,4.17,0,0,1,.75.63A4.93,4.93,0,0,1,251.49,397.61Z" style="fill:#407BFF"></path><path d="M249.72,396.25v1.37h-1.28A4,4,0,0,1,249.72,396.25Z" style="fill:#407BFF"></path></g><g id="freepik--uGJA8C--inject-125"><path d="M253.25,412.6a3.59,3.59,0,0,0-4.17-1.91,3.36,3.36,0,0,0-2.6,3.56,4.77,4.77,0,0,0,.47,1.56,11.81,11.81,0,0,0,2,2.92c.32.36.67.71,1,1.07l.12-.1c.43-.47.88-.92,1.3-1.4a10.5,10.5,0,0,0,1.87-3A3.38,3.38,0,0,0,253.25,412.6Zm-1.07,1.31a2.19,2.19,0,1,1-2.07-2.23A2.19,2.19,0,0,1,252.18,413.91Z" style="fill:#407BFF"></path></g><path d="M137.47,397.46c5.35-.16,10.71-.23,16.06-.29l16.06-.09,16.06.09c5.36.06,10.71.13,16.07.29-5.36.15-10.71.22-16.07.29l-16.06.08-16.06-.09C148.18,397.68,142.82,397.61,137.47,397.46Z" style="fill:#a6a6a6"></path><path d="M137.47,402.08c2.68-.15,5.35-.22,8-.28s5.35-.06,8-.09,5.35,0,8,.08,5.35.14,8,.29c-2.68.16-5.35.23-8,.29s-5.35.06-8,.09-5.35,0-8-.09S140.15,402.24,137.47,402.08Z" style="fill:#a6a6a6"></path><path d="M137.47,412.86c5.35-.15,10.71-.22,16.06-.28l16.06-.09,16.06.08c5.36.06,10.71.14,16.07.29-5.36.16-10.71.23-16.07.29l-16.06.09-16.06-.09C148.18,413.09,142.82,413,137.47,412.86Z" style="fill:#a6a6a6"></path><path d="M137.47,417.49c2.68-.16,5.35-.23,8-.29s5.35-.05,8-.09,5.35,0,8,.09,5.35.13,8,.29c-2.68.15-5.35.23-8,.29s-5.35.05-8,.08-5.35,0-8-.08S140.15,417.64,137.47,417.49Z" style="fill:#a6a6a6"></path><path d="M265.6,397.46c5.35-.16,10.71-.23,16.06-.29l16.06-.09,16.07.09c5.35.06,10.7.13,16.06.29-5.36.15-10.71.22-16.06.29l-16.07.08-16.06-.09C276.31,397.68,271,397.61,265.6,397.46Z" style="fill:#a6a6a6"></path><path d="M265.6,402.08c2.68-.15,5.35-.22,8-.28s5.36-.06,8-.09,5.36,0,8,.08,5.36.14,8,.29c-2.67.16-5.35.23-8,.29s-5.35.06-8,.09-5.35,0-8-.09S268.28,402.24,265.6,402.08Z" style="fill:#a6a6a6"></path><path d="M265.6,412.86c5.35-.15,10.71-.22,16.06-.28l16.06-.09,16.07.08c5.35.06,10.7.14,16.06.29-5.36.16-10.71.23-16.06.29l-16.07.09-16.06-.09C276.31,413.09,271,413,265.6,412.86Z" style="fill:#a6a6a6"></path><path d="M265.6,417.49c2.68-.16,5.35-.23,8-.29s5.36-.05,8-.09,5.36,0,8,.09,5.36.13,8,.29c-2.67.15-5.35.23-8,.29s-5.35.05-8,.08-5.35,0-8-.08S268.28,417.64,265.6,417.49Z" style="fill:#a6a6a6"></path></g></svg>